<svg xmlns="http://www.w3.org/2000/svg" width="16" height="16" viewBox="0 0 24 24"><path fill="white" d="M12 15q1.25 0 2.125-.875T15 12q0-1.25-.875-2.125T12 9q-1.25 0-2.125.875T9 12q0 1.25.875 2.125T12 15Zm0 1q-1.671 0-2.836-1.164T8 12q0-1.671 1.164-2.836T12 8q1.671 0 2.836 1.164T16 12q0 1.671-1.164 2.836T12 16ZM2 12.5q-.213 0-.356-.144Q1.5 12.212 1.5 12t.144-.356Q1.788 11.5 2 11.5h2.5q.213 0 .356.144Q5 11.788 5 12t-.144.356q-.143.143-.356.143H2Zm17.5 0q-.213 0-.356-.144Q19 12.212 19 12t.144-.356q.144-.143.356-.143H22q.213 0 .356.144q.144.144.144.357t-.144.356q-.143.143-.356.143h-2.5ZM12 5q-.213 0-.357-.144q-.143-.143-.143-.356V2q0-.213.144-.356q.144-.144.357-.144t.356.144q.143.144.143.356v2.5q0 .213-.144.356Q12.212 5 12 5Zm0 17.5q-.213 0-.357-.144q-.143-.143-.143-.356v-2.5q0-.213.144-.356Q11.788 19 12 19t.356.144q.143.144.143.356V22q0 .213-.144.356q-.144.144-.357.144ZM6.361 7.03l-1.44-1.395q-.147-.14-.144-.345q.003-.203.149-.369q.16-.165.354-.165q.194 0 .354.165L7.05 6.342q.16.166.16.354q0 .189-.15.354t-.342.153q-.191-.013-.356-.172Zm12.004 12.05l-1.415-1.421q-.16-.166-.16-.357q0-.191.16-.351q.13-.165.327-.153t.361.172l1.44 1.396q.147.14.144.345q-.003.203-.149.369q-.16.165-.354.165q-.194 0-.354-.165ZM16.95 7.059q-.165-.15-.153-.34t.172-.357l1.396-1.44q.14-.147.345-.144q.203.003.369.149q.165.16.165.354q0 .194-.165.354L17.658 7.05q-.166.16-.354.16q-.189 0-.354-.15ZM4.921 19.084q-.165-.17-.165-.364q0-.194.165-.354l1.421-1.415q.166-.16.357-.16q.191 0 .351.16q.146.13.134.327t-.153.361l-1.396 1.44q-.16.166-.354.163q-.194-.003-.36-.158ZM12 12Z"/></svg>