<svg xmlns="http://www.w3.org/2000/svg" width="16" height="16" viewBox="0 0 48 48"><path fill="white" fill-rule="evenodd" d="M31.695 10.08a3 3 0 0 1 4.61 3.84L27.905 24l8.4 10.08a3 3 0 1 1-4.61 3.84L24 28.687l-7.695 9.235a3 3 0 1 1-4.61-3.841l8.4-10.08l-8.4-10.08a3 3 0 0 1 4.61-3.84L24 19.313zm2.945 1.152a1 1 0 0 0-1.408.128l-.768-.64l.768.64l-8.464 10.156a1 1 0 0 1-1.536 0L14.768 11.36a1 1 0 1 0-1.536 1.28l8.933 10.72a1 1 0 0 1 0 1.28l-8.933 10.72a1 1 0 1 0 1.536 1.28l8.464-10.156a1 1 0 0 1 1.536 0l8.464 10.156a1 1 0 0 0 1.536-1.28l-8.933-10.72a1 1 0 0 1 0-1.28l8.933-10.72a1 1 0 0 0-.128-1.408" clip-rule="evenodd"/></svg>